<svg width="309" height="208" viewBox="0 0 309 208" fill="none" xmlns="http://www.w3.org/2000/svg">
<g clip-path="url(#clip0_53_52)">
<path d="M263.301 88.6569H262.862L245.499 193.06H253.316L269.042 98.5002C269.238 97.3308 269.238 96.1173 269.042 94.9479C268.846 93.7786 268.459 92.6827 267.909 91.74C267.359 90.7972 266.661 90.0314 265.863 89.4981C265.066 88.9648 264.191 88.6774 263.301 88.6569Z" fill="#7F56D9"/>
<path d="M227.856 193.06H249.093L264.829 98.5002C265.025 97.3308 265.025 96.1173 264.829 94.9479C264.633 93.7786 264.246 92.6827 263.696 91.74C263.146 90.7972 262.447 90.0314 261.65 89.4981C260.853 88.9648 259.977 88.6774 259.087 88.6569H212.819" stroke="#160905" stroke-linecap="round" stroke-linejoin="round"/>
<path d="M219.25 193.074H289.021" stroke="#160905" stroke-linecap="round" stroke-linejoin="round"/>
<path d="M5.70117 193.074H75.4728" stroke="#160905" stroke-linecap="round" stroke-linejoin="round"/>
<path d="M199.52 48.3154C199.52 48.3154 211.851 54.0036 210.792 66.8187C209.734 79.6338 198.811 86.7607 189.655 80.5885C180.5 74.4163 181.188 50.6821 199.52 48.3154Z" fill="#160905"/>
<path d="M158.993 15.5583C158.993 15.5583 150.187 20.3052 152.653 31.2243C155.119 42.1433 162.168 49.2568 162.168 49.2568L168.508 22.2147L158.993 15.5583Z" fill="#160905"/>
<path d="M228.425 123.579C214.826 132.212 204.862 132.992 200.259 132.71C202.172 144.777 204.592 156.687 207.508 168.385C203.744 167.753 165.213 166.489 165.213 166.489C162.403 172.047 161.231 178.817 161.928 185.476C161.928 185.476 206.32 208.121 225.679 197.081C227.936 195.767 229.883 193.647 231.308 190.949C232.734 188.252 233.584 185.08 233.767 181.778C235.045 159.913 232.09 139.487 228.425 123.579Z" fill="#FF7F50"/>
<path d="M187.519 62.0046C188.795 59.7656 189.982 57.4359 191.073 55.0256C198.162 57.4192 205.201 47.8852 201.537 42.1163C199.61 39.0907 196.974 39.6421 194.778 41.0002C194.938 39.603 195.021 38.1917 195.027 36.7778C195.027 21.0178 186.331 8.22961 175.597 8.22961C164.864 8.22961 156.177 21.0178 156.177 36.7778C156.177 52.5379 162.667 73.0851 173.391 73.0851C175.853 73.0108 178.26 72.0847 180.38 70.3956C183.212 68.3846 185.656 65.5115 187.519 62.0046Z" fill="#FF7F50"/>
<path d="M187.519 62.0046C188.795 59.7656 189.982 57.4359 191.073 55.0256C198.162 57.4192 205.201 47.8852 201.537 42.1163C199.61 39.0907 196.974 39.6421 194.778 41.0002C194.938 39.603 195.021 38.1917 195.027 36.7778C195.027 21.0178 186.331 8.22961 175.597 8.22961C164.864 8.22961 156.177 21.0178 156.177 36.7778C156.177 52.5379 162.667 73.0851 173.391 73.0851C175.853 73.0108 178.26 72.0847 180.38 70.3956C183.212 68.3846 185.656 65.5115 187.519 62.0046Z" fill="#FF7F50"/>
<path d="M193.479 50.2922C194.773 47.9488 196.594 46.2317 198.671 45.3975" stroke="#160905" stroke-linecap="round" stroke-linejoin="round"/>
<path d="M161.459 91.185C161.459 91.185 182.606 111.436 205.631 87.3929C205.631 87.3929 190.594 81.0593 190.594 50.6823H171.793C171.793 50.6823 180.719 76.6352 161.459 91.185Z" fill="#FF7F50"/>
<path d="M199.989 132.952C213.618 134.216 229.473 123.068 229.473 123.068C221.486 81.9333 205.151 87.4735 205.151 87.4735C180.609 111.356 161.459 91.1849 161.459 91.1849C161.459 91.1849 149.478 96.7251 147.361 114.758C147.361 114.758 145.953 119.505 153.002 122.355" stroke="#160905" stroke-linecap="round" stroke-linejoin="round"/>
<path d="M21.7761 103.704C22.4654 103.704 23.0242 102.952 23.0242 102.023C23.0242 101.095 22.4654 100.342 21.7761 100.342C21.0869 100.342 20.5281 101.095 20.5281 102.023C20.5281 102.952 21.0869 103.704 21.7761 103.704Z" fill="#160905"/>
<path d="M29.5142 103.704C30.2035 103.704 30.7622 102.952 30.7622 102.023C30.7622 101.095 30.2035 100.342 29.5142 100.342C28.8249 100.342 28.2661 101.095 28.2661 102.023C28.2661 102.952 28.8249 103.704 29.5142 103.704Z" fill="#160905"/>
<path d="M37.2522 103.704C37.9415 103.704 38.5003 102.952 38.5003 102.023C38.5003 101.095 37.9415 100.342 37.2522 100.342C36.5629 100.342 36.0042 101.095 36.0042 102.023C36.0042 102.952 36.5629 103.704 37.2522 103.704Z" fill="#160905"/>
<path d="M44.99 103.704C45.6793 103.704 46.2381 102.952 46.2381 102.023C46.2381 101.095 45.6793 100.342 44.99 100.342C44.3007 100.342 43.7419 101.095 43.7419 102.023C43.7419 102.952 44.3007 103.704 44.99 103.704Z" fill="#160905"/>
<path d="M21.7761 113.117C22.4654 113.117 23.0242 112.365 23.0242 111.436C23.0242 110.508 22.4654 109.755 21.7761 109.755C21.0869 109.755 20.5281 110.508 20.5281 111.436C20.5281 112.365 21.0869 113.117 21.7761 113.117Z" fill="#160905"/>
<path d="M29.5142 113.117C30.2035 113.117 30.7622 112.365 30.7622 111.436C30.7622 110.508 30.2035 109.755 29.5142 109.755C28.8249 109.755 28.2661 110.508 28.2661 111.436C28.2661 112.365 28.8249 113.117 29.5142 113.117Z" fill="#160905"/>
<path d="M37.2522 113.117C37.9415 113.117 38.5003 112.365 38.5003 111.436C38.5003 110.508 37.9415 109.755 37.2522 109.755C36.5629 109.755 36.0042 110.508 36.0042 111.436C36.0042 112.365 36.5629 113.117 37.2522 113.117Z" fill="#160905"/>
<path d="M44.99 113.117C45.6793 113.117 46.2381 112.365 46.2381 111.436C46.2381 110.508 45.6793 109.755 44.99 109.755C44.3007 109.755 43.7419 110.508 43.7419 111.436C43.7419 112.365 44.3007 113.117 44.99 113.117Z" fill="#160905"/>
<path d="M21.7761 122.53C22.4654 122.53 23.0242 121.778 23.0242 120.849C23.0242 119.921 22.4654 119.168 21.7761 119.168C21.0869 119.168 20.5281 119.921 20.5281 120.849C20.5281 121.778 21.0869 122.53 21.7761 122.53Z" fill="#160905"/>
<path d="M29.5142 122.53C30.2035 122.53 30.7622 121.778 30.7622 120.849C30.7622 119.921 30.2035 119.168 29.5142 119.168C28.8249 119.168 28.2661 119.921 28.2661 120.849C28.2661 121.778 28.8249 122.53 29.5142 122.53Z" fill="#160905"/>
<path d="M37.2522 122.53C37.9415 122.53 38.5003 121.778 38.5003 120.849C38.5003 119.921 37.9415 119.168 37.2522 119.168C36.5629 119.168 36.0042 119.921 36.0042 120.849C36.0042 121.778 36.5629 122.53 37.2522 122.53Z" fill="#160905"/>
<path d="M44.99 122.53C45.6793 122.53 46.2381 121.778 46.2381 120.849C46.2381 119.921 45.6793 119.168 44.99 119.168C44.3007 119.168 43.7419 119.921 43.7419 120.849C43.7419 121.778 44.3007 122.53 44.99 122.53Z" fill="#160905"/>
<path d="M202.685 145.605C202.685 145.605 204.922 162.697 207.508 168.385C207.508 168.385 184.014 166.959 175.198 166.489" stroke="#160905" stroke-linecap="round" stroke-linejoin="round"/>
<path d="M210.443 170.765C210.443 170.765 213.618 171.236 216.783 178.833" stroke="#160905" stroke-linecap="round" stroke-linejoin="round"/>
<path d="M153.352 123.781C154.538 117.154 156.07 110.647 157.935 104.309" stroke="#160905" stroke-linecap="round" stroke-linejoin="round"/>
<path d="M143.837 178.833C143.837 178.833 136.089 182.625 121.282 175.028C106.475 167.43 91.6876 124.722 91.6876 124.722C86.3958 125.193 82.1724 117.124 82.1724 117.124L80.4051 118.079C78.6479 119.034 75.1233 118.55 72.3077 113.803C69.4921 109.056 75.1233 94.829 75.1233 94.829L70.5405 90.5528C65.9576 86.2767 69.1326 82.0139 69.1326 82.0139C69.1326 82.0139 83.9297 89.1275 90.2798 92.9195C96.6299 96.7116 104.368 113.332 104.368 113.332C124.107 128.043 137.496 154.144 137.496 154.144C138.205 147.985 147.012 116.654 147.012 116.654C147.012 116.654 149.009 120.607 154.65 122.194C153.232 132.481 145.424 175.028 143.837 178.833Z" fill="#FF7F50"/>
<path d="M69.1326 82.0139C69.1326 82.0139 66.0774 84.542 69.6019 88.9661C73.1264 93.3902 86.0464 100.988 86.0464 100.988C86.0464 100.988 85.5771 106.367 82.0526 108.276C78.5281 110.186 74.3046 111.113 75.0035 114.287C75.1622 115.023 75.4299 115.709 75.7907 116.302C76.1515 116.895 76.5977 117.384 77.1025 117.738C77.6074 118.092 78.1603 118.305 78.7279 118.364C79.2955 118.423 79.8661 118.326 80.4051 118.079L82.7615 117.124C83.7096 120.114 85.4758 122.498 87.6938 123.781" stroke="#160905" stroke-linecap="round" stroke-linejoin="round"/>
<path d="M80.6447 98.4598C80.6447 98.4598 76.8805 104.161 78.528 109.54" stroke="#160905" stroke-linecap="round" stroke-linejoin="round"/>
<path d="M75.1233 94.8291C75.1233 94.8291 69.8415 107.321 71.9482 112.378C74.0549 117.434 76.1816 117.124 76.1816 117.124" stroke="#160905" stroke-linecap="round" stroke-linejoin="round"/>
<path d="M82.1724 117.124C82.1724 117.124 89.0417 115.47 91.6876 113.655" stroke="#160905" stroke-linecap="round" stroke-linejoin="round"/>
<path d="M75.9121 114.879C75.9121 114.879 76.1817 113.332 77.909 112.741C78.7136 112.429 79.5401 112.23 80.3752 112.149C80.3752 112.149 81.0841 116.183 81.793 117.124C81.8229 117.124 77.0603 120.338 75.9121 114.879Z" fill="#160905"/>
<path d="M68.4238 83.668C68.4238 83.668 71.9483 87.2315 73.8055 84.2596L69.0429 81.8929L68.4238 83.668Z" fill="#160905"/>
<path d="M172.742 203.24H80.7645C79.7948 203.242 78.8534 202.8 78.095 201.986C77.3366 201.172 76.8062 200.035 76.5909 198.762L65.0688 130.612C64.9247 129.769 64.9237 128.892 65.0658 128.048C65.2079 127.204 65.4894 126.414 65.8896 125.737C66.2897 125.06 66.798 124.513 67.3768 124.137C67.9555 123.761 68.5898 123.566 69.2324 123.566H161.209C162.179 123.563 163.121 124.006 163.879 124.819C164.637 125.633 165.168 126.77 165.383 128.043L176.905 196.207C177.048 197.049 177.047 197.924 176.904 198.766C176.761 199.609 176.48 200.397 176.08 201.072C175.68 201.748 175.172 202.294 174.594 202.669C174.016 203.044 173.383 203.239 172.742 203.24Z" fill="#F9FBFC" stroke="#7F56D9" stroke-miterlimit="10"/>
<path d="M168.788 203.818H76.8107C75.8346 203.814 74.8888 203.361 74.1298 202.535C73.3708 201.708 72.8442 200.557 72.6372 199.273L61.1151 129.98C60.9669 129.13 60.9624 128.247 61.1019 127.394C61.2415 126.542 61.5214 125.743 61.9212 125.056C62.3209 124.369 62.8302 123.812 63.4114 123.426C63.9925 123.04 64.6306 122.835 65.2786 122.826H157.256C158.233 122.833 159.179 123.288 159.937 124.117C160.696 124.946 161.222 126.099 161.429 127.385L172.951 196.664C173.1 197.514 173.104 198.397 172.964 199.249C172.825 200.102 172.545 200.901 172.145 201.588C171.745 202.274 171.236 202.832 170.655 203.218C170.074 203.604 169.436 203.809 168.788 203.818Z" fill="#7F56D9"/>
<path d="M198.462 101.472C198.462 101.472 195.646 112.378 198.811 128.043" stroke="#160905" stroke-linecap="round" stroke-linejoin="round"/>
<path d="M162.867 98.6211C162.867 98.6211 176.256 110.481 191.762 101.943" stroke="#160905" stroke-linecap="round" stroke-linejoin="round"/>
<path d="M173.441 73.0447L172.951 73.3405C172.114 77.0001 170.72 80.3846 168.858 83.278C176.795 82.0677 184.563 74.1743 185.831 63.9679C180.49 73.9457 173.441 73.0447 173.441 73.0447Z" fill="#160905"/>
<path d="M204.802 19.364C206.21 27.9029 201.537 42.1165 201.537 42.1165C199.151 38.0824 194.778 41.0004 194.778 41.0004C191.782 43.6899 188.947 49.7411 188.947 49.7411C185.073 44.0395 186.83 35.9712 186.83 35.9712C175.557 35.9712 158.644 23.6268 156.876 15.0879C156.058 11.121 158.354 7.71884 161.05 5.21767C164.424 2.13786 168.37 0.391092 172.442 0.175003C178.004 -0.188069 187.419 -0.255312 194.119 2.54169C197.052 3.76653 199.693 6.01147 201.777 9.05009C205.76 14.8727 204.802 19.364 204.802 19.364Z" fill="#160905"/>
<path d="M225.769 125.677C225.769 125.677 219.08 138.72 201.457 139.675L200.399 133.974C200.399 133.974 214.846 132.078 225.769 125.677Z" fill="#160905"/>
<path d="M195.167 57.6478C196.137 57.6478 196.924 56.5882 196.924 55.2811C196.924 53.974 196.137 52.9144 195.167 52.9144C194.196 52.9144 193.41 53.974 193.41 55.2811C193.41 56.5882 194.196 57.6478 195.167 57.6478Z" fill="white"/>
<path d="M125.387 170.457C127.219 164.881 124.653 157.947 119.655 154.969C114.658 151.99 109.122 154.096 107.29 159.672C105.458 165.248 108.024 172.182 113.021 175.16C118.018 178.139 123.555 176.033 125.387 170.457Z" fill="white"/>
<path d="M91.8673 102.575H55.2142C54.8263 102.569 54.4514 102.386 54.1504 102.056C53.8494 101.727 53.6402 101.269 53.5568 100.759L48.9639 73.1523C48.9056 72.8129 48.9046 72.4603 48.961 72.1203C49.0175 71.7804 49.1298 71.4618 49.2899 71.1882C49.4499 70.9146 49.6535 70.6929 49.8857 70.5394C50.1179 70.3859 50.3727 70.3046 50.6313 70.3015H87.2744C87.6633 70.3026 88.0401 70.4835 88.3418 70.814C88.6435 71.1444 88.8518 71.6044 88.9318 72.1169L93.5247 99.7238C93.5848 100.062 93.5874 100.415 93.5323 100.755C93.4773 101.095 93.3659 101.414 93.2066 101.688C93.0473 101.962 92.8441 102.184 92.6122 102.337C92.3803 102.491 92.1257 102.572 91.8673 102.575Z" stroke="#160905" stroke-linecap="round" stroke-linejoin="round"/>
<path d="M75.9322 86.0616C76.4414 89.9075 74.2647 93.0945 71.0597 93.1751C67.8547 93.2558 64.8494 90.1899 64.3302 86.344C63.811 82.4981 65.9976 79.3111 69.2026 79.2304C72.4076 79.1498 75.413 82.2157 75.9322 86.0616Z" fill="#7F56D9"/>
<path d="M47.5161 64.2906H83.6899" stroke="#160905" stroke-linecap="round" stroke-linejoin="round"/>
<path d="M47.5161 59.2345H76.6409" stroke="#160905" stroke-linecap="round" stroke-linejoin="round"/>
<path d="M61.2647 203.509C61.2647 205.983 54.7948 208 46.8172 208C38.8396 208 32.3696 205.983 32.3696 203.509C32.3696 201.034 38.8296 199.017 46.8172 199.017C54.8048 199.017 61.2647 201.034 61.2647 203.509Z" fill="#160905"/>
<path d="M57.1513 166.233H32.7192V202.07H57.1513V166.233Z" fill="#7F56D9"/>
<path d="M57.1513 202.056C57.1513 204.154 51.6898 205.848 44.9402 205.848C38.1907 205.848 32.7192 204.154 32.7192 202.056C32.7192 199.959 38.1907 198.264 44.9402 198.264C51.6898 198.264 57.1513 199.959 57.1513 202.056Z" fill="#7F56D9"/>
<path d="M44.9302 169.877C51.415 169.877 56.672 168.246 56.672 166.233C56.672 164.221 51.415 162.589 44.9302 162.589C38.4454 162.589 33.1885 164.221 33.1885 166.233C33.1885 168.246 38.4454 169.877 44.9302 169.877Z" fill="#F9FBFC" stroke="#7F56D9" stroke-miterlimit="10"/>
<path d="M54.7149 197.726C52.7915 197.726 50.9113 196.958 49.312 195.519C47.7128 194.08 46.4663 192.034 45.7303 189.641C44.9942 187.248 44.8016 184.614 45.1769 182.074C45.5521 179.533 46.4783 177.199 47.8384 175.368C49.1984 173.536 50.9312 172.288 52.8177 171.783C54.7041 171.278 56.6594 171.537 58.4364 172.528C60.2134 173.52 61.7323 175.198 62.8008 177.352C63.8694 179.506 64.4398 182.038 64.4398 184.629C64.4371 188.101 63.4117 191.431 61.5885 193.886C59.7653 196.342 57.2933 197.723 54.7149 197.726ZM54.7149 176.359C53.5004 176.359 52.3132 176.844 51.3034 177.753C50.2937 178.661 49.5066 179.953 49.0419 181.464C48.5771 182.975 48.4555 184.638 48.6924 186.242C48.9294 187.846 49.5142 189.32 50.3729 190.477C51.2317 191.633 52.3258 192.421 53.517 192.74C54.7081 193.059 55.9427 192.895 57.0648 192.269C58.1868 191.643 59.1458 190.583 59.8205 189.223C60.4952 187.863 60.8554 186.264 60.8554 184.629C60.8527 182.437 60.2049 180.335 59.0539 178.785C57.903 177.235 56.3426 176.362 54.7149 176.359Z" fill="#7F56D9"/>
<path d="M234.276 70.4898L228.924 65.1109C228.72 64.9055 228.548 64.6479 228.418 64.3527C228.288 64.0576 228.202 63.7308 228.166 63.391C228.13 63.0512 228.144 62.7051 228.207 62.3726C228.271 62.0401 228.382 61.7277 228.535 61.4533C228.853 60.9115 229.313 60.5548 229.82 60.4572C230.328 60.3596 230.843 60.5285 231.261 60.9289L234.256 63.9814C234.592 64.3207 235 64.5041 235.419 64.5041C235.839 64.5041 236.247 64.3207 236.583 63.9814L241.155 59.369C241.491 59.0297 241.899 58.8463 242.319 58.8463C242.738 58.8463 243.146 59.0297 243.482 59.369L248.055 63.9814C248.395 64.3118 248.804 64.4896 249.223 64.4896C249.642 64.4896 250.051 64.3118 250.391 63.9814L254.964 59.3556C255.303 59.0282 255.71 58.8522 256.127 58.8522C256.544 58.8522 256.951 59.0282 257.29 59.3556L261.863 63.9679C262.199 64.3072 262.607 64.4907 263.026 64.4907C263.446 64.4907 263.854 64.3072 264.19 63.9679L268.773 59.3421C269.112 59.0148 269.519 58.8387 269.936 58.8387C270.353 58.8387 270.76 59.0148 271.099 59.3421L276.451 64.721C276.853 65.1487 277.118 65.7683 277.19 66.4517C277.263 67.135 277.137 67.8297 276.84 68.392C276.688 68.6671 276.496 68.8989 276.277 69.0741C276.058 69.2494 275.815 69.3647 275.563 69.4134C275.311 69.4622 275.054 69.4433 274.807 69.3581C274.56 69.2728 274.328 69.1227 274.124 68.9165L271.129 65.864C270.793 65.5247 270.385 65.3412 269.966 65.3412C269.546 65.3412 269.138 65.5247 268.803 65.864L264.22 70.4763C263.884 70.8156 263.476 70.9991 263.056 70.9991C262.637 70.9991 262.229 70.8156 261.893 70.4763L257.31 65.8774C256.975 65.5381 256.567 65.3547 256.147 65.3547C255.728 65.3547 255.319 65.5381 254.984 65.8774L250.401 70.4898C250.066 70.8291 249.657 71.0125 249.238 71.0125C248.818 71.0125 248.41 70.8291 248.075 70.4898L243.502 65.8774C243.166 65.5381 242.758 65.3547 242.339 65.3547C241.919 65.3547 241.511 65.5381 241.175 65.8774L236.603 70.4898C236.267 70.8291 235.859 71.0125 235.439 71.0125C235.02 71.0125 234.612 70.8291 234.276 70.4898Z" fill="#F9FBFC" stroke="#12B76A" stroke-miterlimit="10"/>
<path d="M6.62966 148.322L1.27799 142.943C0.875679 142.515 0.610873 141.896 0.538389 141.212C0.465904 140.529 0.591278 139.834 0.888583 139.272C1.20614 138.73 1.66625 138.373 2.17364 138.276C2.68103 138.178 3.19686 138.347 3.61436 138.747L6.60971 141.8C6.94517 142.139 7.35337 142.323 7.77291 142.323C8.19244 142.323 8.60061 142.139 8.93608 141.8L13.509 137.188C13.8445 136.848 14.2526 136.665 14.6722 136.665C15.0917 136.665 15.4999 136.848 15.8354 137.188L20.4083 141.8C20.7484 142.13 21.1571 142.308 21.5764 142.308C21.9958 142.308 22.4045 142.13 22.7446 141.8L27.3175 137.188C27.653 136.848 28.0612 136.665 28.4807 136.665C28.9003 136.665 29.3085 136.848 29.6439 137.188L34.2168 141.8C34.5523 142.139 34.9605 142.323 35.38 142.323C35.7995 142.323 36.2078 142.139 36.5432 141.8L41.1261 137.188C41.4616 136.848 41.8697 136.665 42.2893 136.665C42.7088 136.665 43.117 136.848 43.4525 137.188L48.8042 142.566C49.0084 142.772 49.1805 143.029 49.3106 143.325C49.4408 143.62 49.5264 143.947 49.5625 144.286C49.5987 144.626 49.5848 144.972 49.5214 145.305C49.4581 145.637 49.3467 145.95 49.1935 146.224C49.041 146.499 48.8498 146.731 48.6306 146.906C48.4115 147.081 48.1688 147.197 47.9165 147.245C47.6642 147.294 47.4072 147.275 47.1604 147.19C46.9135 147.105 46.6815 146.955 46.4778 146.748L43.4824 143.696C43.147 143.357 42.7388 143.173 42.3192 143.173C41.8997 143.173 41.4915 143.357 41.156 143.696L36.5732 148.308C36.2377 148.648 35.8295 148.831 35.41 148.831C34.9904 148.831 34.5822 148.648 34.2468 148.308L29.6639 143.709C29.3284 143.37 28.9202 143.187 28.5007 143.187C28.0812 143.187 27.673 143.37 27.3375 143.709L22.7646 148.322C22.4245 148.652 22.0158 148.83 21.5964 148.83C21.1771 148.83 20.7683 148.652 20.4282 148.322L15.8554 143.709C15.5199 143.37 15.1117 143.187 14.6922 143.187C14.2726 143.187 13.8644 143.37 13.529 143.709L8.95607 148.322C8.6206 148.661 8.2124 148.845 7.79287 148.845C7.37333 148.845 6.96513 148.661 6.62966 148.322Z" fill="#F9FBFC" stroke="#12B76A" stroke-miterlimit="10"/>
<path d="M138.495 73.7709H105.546C104.069 73.6851 102.653 72.9536 101.513 71.687C100.373 70.4204 99.5697 68.6877 99.2259 66.7515L93.5048 30.4443C93.3274 29.6057 93.3002 28.7223 93.4255 27.8668C93.5508 27.0113 93.8249 26.2081 94.2254 25.523C94.626 24.8379 95.1414 24.2905 95.7295 23.9257C96.3176 23.561 96.9615 23.3894 97.6084 23.4249H130.557C132.034 23.5106 133.45 24.2422 134.59 25.5088C135.731 26.7754 136.534 28.508 136.877 30.4443L142.599 66.7515C142.776 67.5901 142.803 68.4734 142.678 69.3289C142.553 70.1844 142.278 70.9877 141.878 71.6728C141.477 72.3579 140.962 72.9052 140.374 73.27C139.786 73.6347 139.142 73.8064 138.495 73.7709Z" fill="#F9FBFC" stroke="#12B76A" stroke-miterlimit="10"/>
<path d="M130.507 23.4921H97.5584C96.9115 23.4566 96.2675 23.6283 95.6795 23.993C95.0914 24.3577 94.5759 24.9051 94.1754 25.5902C93.7749 26.2753 93.5007 27.0786 93.3755 27.9341C93.2502 28.7896 93.2774 29.6729 93.4548 30.5115L94.1836 35.097H137.566L136.837 30.5115C136.493 28.5731 135.689 26.8389 134.546 25.5721C133.404 24.3053 131.986 23.575 130.507 23.4921Z" fill="#12B76A"/>
<path d="M121.381 29.745C121.43 29.9515 121.441 30.1707 121.413 30.384C121.385 30.5972 121.319 30.7982 121.221 30.9698C121.123 31.1414 120.995 31.2786 120.849 31.3697C120.704 31.4609 120.544 31.5032 120.383 31.4932C120.013 31.4726 119.659 31.2911 119.373 30.9759C119.086 30.6606 118.884 30.2287 118.795 29.745C118.745 29.5378 118.733 29.3171 118.76 29.102C118.787 28.8869 118.852 28.684 118.951 28.5106C119.049 28.3372 119.177 28.1986 119.324 28.1068C119.471 28.015 119.632 27.9726 119.794 27.9835C120.165 28.0048 120.52 28.1883 120.807 28.5061C121.093 28.824 121.295 29.2589 121.381 29.745Z" fill="white"/>
<path d="M127.013 29.745C127.061 29.9515 127.072 30.1707 127.044 30.384C127.016 30.5972 126.95 30.7982 126.852 30.9698C126.754 31.1414 126.627 31.2786 126.481 31.3697C126.335 31.4609 126.175 31.5032 126.014 31.4932C125.645 31.4726 125.29 31.2911 125.004 30.9759C124.718 30.6606 124.515 30.2287 124.427 29.745C124.376 29.5378 124.364 29.3171 124.391 29.102C124.418 28.8869 124.484 28.684 124.582 28.5106C124.68 28.3372 124.808 28.1986 124.955 28.1068C125.102 28.015 125.263 27.9726 125.425 27.9835C125.796 28.0048 126.152 28.1883 126.438 28.5061C126.725 28.824 126.926 29.2589 127.013 29.745Z" fill="white"/>
<path d="M132.644 29.745C132.692 29.9515 132.703 30.1707 132.675 30.384C132.647 30.5972 132.581 30.7982 132.483 30.9698C132.385 31.1414 132.258 31.2786 132.112 31.3697C131.966 31.4609 131.806 31.5032 131.645 31.4932C131.276 31.4726 130.921 31.2911 130.635 30.9759C130.349 30.6606 130.146 30.2287 130.058 29.745C130.007 29.5378 129.995 29.3171 130.022 29.102C130.049 28.8869 130.115 28.684 130.213 28.5106C130.311 28.3372 130.439 28.1986 130.586 28.1068C130.733 28.015 130.895 27.9726 131.056 27.9835C131.427 28.0048 131.783 28.1883 132.069 28.5061C132.356 28.824 132.557 29.2589 132.644 29.745Z" fill="white"/>
<path d="M123.438 52.3362L112.835 45.2092C112.688 45.1022 112.521 45.0573 112.355 45.0805C112.189 45.1037 112.032 45.1939 111.904 45.3392C111.777 45.4845 111.685 45.6783 111.641 45.895C111.597 46.1117 111.602 46.3414 111.656 46.5539L114.542 60.8079C114.576 60.9801 114.641 61.1387 114.73 61.2705C114.819 61.4023 114.931 61.5033 115.055 61.5652C115.179 61.6271 115.312 61.648 115.444 61.6262C115.575 61.6044 115.701 61.5405 115.81 61.4399L123.528 54.3129C123.658 54.2078 123.764 54.0566 123.835 53.8759C123.905 53.6951 123.938 53.4917 123.929 53.2878C123.919 53.084 123.869 52.8874 123.782 52.7196C123.696 52.5518 123.577 52.4192 123.438 52.3362Z" fill="#160905"/>
<path d="M47.037 30.404C47.1018 30.7104 47.1118 31.0331 47.0662 31.3458C47.0206 31.6584 46.9206 31.952 46.7745 32.2026C46.6284 32.4532 46.4403 32.6536 46.2256 32.7874C46.0109 32.9212 45.7757 32.9846 45.5393 32.9724C44.9999 32.9397 44.4831 32.6713 44.067 32.2079C43.6509 31.7446 43.3581 31.1113 43.2329 30.404C43.168 30.0976 43.158 29.7748 43.2037 29.4622C43.2493 29.1496 43.3492 28.8559 43.4953 28.6054C43.6415 28.3548 43.8296 28.1544 44.0443 28.0206C44.259 27.8868 44.4942 27.8234 44.7305 27.8356C45.2699 27.8683 45.7867 28.1367 46.2028 28.6C46.6189 29.0634 46.9117 29.6966 47.037 30.404Z" fill="#160905"/>
<path d="M58.7187 30.4039C58.7835 30.7104 58.7936 31.0331 58.7479 31.3457C58.7023 31.6584 58.6024 31.952 58.4562 32.2026C58.3101 32.4532 58.122 32.6536 57.9073 32.7874C57.6926 32.9212 57.4574 32.9846 57.221 32.9724C56.6804 32.9403 56.1621 32.6725 55.7443 32.2092C55.3265 31.746 55.0318 31.1124 54.9046 30.4039C54.8395 30.0964 54.8296 29.7724 54.8757 29.4587C54.9218 29.145 55.0227 28.8505 55.17 28.5996C55.3172 28.3487 55.5067 28.1486 55.7227 28.0158C55.9387 27.8829 56.1751 27.8211 56.4123 27.8355C56.9512 27.8704 57.4672 28.1396 57.883 28.6026C58.2988 29.0656 58.592 29.6976 58.7187 30.4039Z" fill="#160905"/>
<path d="M70.4005 30.404C70.4657 30.7115 70.4756 31.0355 70.4295 31.3492C70.3833 31.663 70.2824 31.9574 70.1352 32.2083C69.9879 32.4592 69.7984 32.6593 69.5824 32.7922C69.3664 32.925 69.1301 32.9868 68.8929 32.9724C68.3575 32.9319 67.846 32.6602 67.4342 32.1976C67.0224 31.735 66.7321 31.1061 66.6064 30.404C66.5416 30.0976 66.5316 29.7748 66.5772 29.4622C66.6228 29.1496 66.7228 28.8559 66.8689 28.6054C67.015 28.3548 67.2031 28.1544 67.4178 28.0206C67.6325 27.8868 67.8677 27.8234 68.1041 27.8356C68.6412 27.8733 69.155 28.1437 69.5688 28.6065C69.9826 29.0693 70.2743 29.6998 70.4005 30.404Z" fill="#160905"/>
<path d="M77.3998 19.4042H34.0571C33.6627 19.3819 33.2699 19.4859 32.9111 19.7077C32.5523 19.9295 32.2377 20.2628 31.9931 20.6802C31.7485 21.0976 31.5809 21.5871 31.504 22.1087C31.4272 22.6302 31.4433 23.1689 31.551 23.6804L33.5479 36.4955C33.7573 37.6736 34.2455 38.7279 34.939 39.4994C35.6324 40.2708 36.4934 40.7174 37.392 40.7717H56.6221L59.8571 45.5051L61.5944 40.7717H80.7746C81.1689 40.7948 81.5616 40.6911 81.9202 40.4693C82.2789 40.2474 82.5932 39.9138 82.8371 39.4959C83.081 39.078 83.2475 38.588 83.3229 38.0662C83.3983 37.5445 83.3804 37.0061 83.2707 36.4955L81.2738 23.6804C81.063 22.4959 80.5703 21.4368 79.8709 20.6647C79.1714 19.8926 78.3036 19.4499 77.3998 19.4042Z" stroke="#160905" stroke-linecap="round" stroke-linejoin="round"/>
<path d="M257.37 37.7191H220.727C220.337 37.7162 219.96 37.5348 219.657 37.205C219.354 36.8751 219.143 36.4162 219.06 35.9038L214.477 8.29683C214.417 7.95834 214.414 7.60594 214.469 7.26591C214.524 6.92587 214.636 6.60697 214.795 6.33294C214.954 6.05892 215.157 5.83687 215.389 5.6833C215.621 5.52974 215.876 5.44864 216.134 5.44604H252.777C253.167 5.44902 253.544 5.63032 253.847 5.9602C254.15 6.29009 254.361 6.74893 254.445 7.26139L259.038 34.8549C259.096 35.1949 259.097 35.5482 259.04 35.8888C258.984 36.2294 258.872 36.5486 258.712 36.8232C258.552 37.0978 258.348 37.3208 258.116 37.4758C257.884 37.6308 257.629 37.714 257.37 37.7191Z" stroke="#160905" stroke-linecap="round" stroke-linejoin="round"/>
<path d="M222.774 13.6757H248.374" stroke="#160905" stroke-linecap="round" stroke-linejoin="round"/>
<path d="M224.411 20.6279H250.022" stroke="#160905" stroke-linecap="round" stroke-linejoin="round"/>
<path d="M226.059 27.5935H237.102" stroke="#160905" stroke-linecap="round" stroke-linejoin="round"/>
<path d="M97.8579 88.9796H122.619" stroke="#160905" stroke-linecap="round" stroke-linejoin="round"/>
<path d="M123.498 85.3354L122.06 76.2451" stroke="#160905" stroke-linecap="round" stroke-linejoin="round"/>
<path d="M213.958 46.8901H240.386L238.979 37.8805" stroke="#160905" stroke-linecap="round" stroke-linejoin="round"/>
<path d="M300.533 180.501H263.88V193.786H300.533V180.501Z" fill="#160905"/>
<path d="M306.713 143.723C302.999 161.46 295.83 174.261 290.738 172.311C285.646 170.362 284.488 154.413 288.212 136.663C291.936 118.913 297.757 112.458 302.879 114.462C308.002 116.465 310.438 125.973 306.713 143.723Z" stroke="#160905" stroke-linecap="round" stroke-linejoin="round"/>
<path d="M267.654 152.181C270.38 165.157 275.642 174.517 279.366 173.091C283.09 171.666 283.939 159.994 281.223 147.017C278.507 134.041 274.234 129.348 270.49 130.773C266.746 132.199 264.929 139.191 267.654 152.181Z" stroke="#160905" stroke-linecap="round" stroke-linejoin="round"/>
<path d="M301.482 124.09C301.482 124.09 289.73 172.19 287.613 189.9" stroke="#160905" stroke-linecap="round" stroke-linejoin="round"/>
<path d="M271.878 139.272C271.878 139.272 281.273 168.708 281.513 187.049" stroke="#160905" stroke-linecap="round" stroke-linejoin="round"/>
<path d="M31.7708 10.1929H64.1904" stroke="#160905" stroke-linecap="round" stroke-linejoin="round"/>
<path d="M265.178 45.9488C266.281 45.9488 267.175 44.7447 267.175 43.2594C267.175 41.774 266.281 40.5699 265.178 40.5699C264.075 40.5699 263.181 41.774 263.181 43.2594C263.181 44.7447 264.075 45.9488 265.178 45.9488Z" stroke="#160905" stroke-linecap="round" stroke-linejoin="round"/>
<path d="M88.9818 55.7518C90.0846 55.7518 90.9787 54.5477 90.9787 53.0623C90.9787 51.577 90.0846 50.3729 88.9818 50.3729C87.8789 50.3729 86.9849 51.577 86.9849 53.0623C86.9849 54.5477 87.8789 55.7518 88.9818 55.7518Z" stroke="#160905" stroke-linecap="round" stroke-linejoin="round"/>
<path d="M142.309 83.6008C143.412 83.6008 144.306 82.3967 144.306 80.9113C144.306 79.426 143.412 78.2219 142.309 78.2219C141.206 78.2219 140.312 79.426 140.312 80.9113C140.312 82.3967 141.206 83.6008 142.309 83.6008Z" stroke="#160905" stroke-linecap="round" stroke-linejoin="round"/>
<path d="M164.275 48.3155C164.275 48.5655 164.22 48.8099 164.117 49.0178C164.013 49.2257 163.867 49.3877 163.695 49.4834C163.524 49.579 163.335 49.6041 163.153 49.5553C162.971 49.5065 162.804 49.3861 162.673 49.2094C162.541 49.0326 162.452 48.8074 162.416 48.5622C162.38 48.317 162.398 48.0628 162.469 47.8318C162.54 47.6009 162.66 47.4035 162.815 47.2646C162.969 47.1257 163.151 47.0515 163.336 47.0515C163.585 47.0515 163.824 47.1847 164 47.4218C164.176 47.6588 164.275 47.9803 164.275 48.3155Z" fill="#160905"/>
<path d="M174.149 48.3155C174.151 48.5688 174.097 48.8171 173.994 49.0289C173.891 49.2407 173.744 49.4066 173.571 49.5053C173.398 49.6041 173.207 49.6313 173.022 49.5835C172.837 49.5358 172.667 49.4152 172.534 49.2371C172.4 49.059 172.309 48.8314 172.271 48.5832C172.234 48.335 172.252 48.0775 172.324 47.8433C172.395 47.6091 172.517 47.4088 172.673 47.2678C172.829 47.1268 173.013 47.0515 173.201 47.0515C173.451 47.0515 173.691 47.1842 173.868 47.4209C174.046 47.6576 174.147 47.9791 174.149 48.3155Z" fill="#160905"/>
<path d="M166.272 52.7396C166.272 52.7396 165.103 57.3251 165.922 58.1185C166.216 58.3262 166.546 58.4211 166.878 58.3926C167.209 58.3641 167.528 58.2135 167.799 57.9571" stroke="#160905" stroke-linecap="round" stroke-linejoin="round"/>
<path d="M175.198 57.6478C174.81 58.4971 174.278 59.2112 173.647 59.7322C173.015 60.2532 172.302 60.5664 171.563 60.6465" stroke="#160905" stroke-linecap="round" stroke-linejoin="round"/>
<path d="M170.755 42.4525C170.645 42.3607 170.557 42.2311 170.497 42.0772C170.438 41.9232 170.41 41.7507 170.418 41.5776C170.425 41.4044 170.466 41.237 170.538 41.0929C170.609 40.9488 170.709 40.8332 170.825 40.7582C171.883 40.0993 173.77 39.2925 175.358 40.57C176.296 42.3046 172.542 43.8242 170.755 42.4525Z" fill="#160905"/>
<path d="M160.071 43.7166C159.962 43.6247 159.873 43.4951 159.814 43.3412C159.755 43.1873 159.727 43.0147 159.734 42.8416C159.741 42.6684 159.783 42.5011 159.855 42.3569C159.926 42.2128 160.025 42.0972 160.141 42.0222C160.831 41.5133 161.6 41.231 162.386 41.1983C163.172 41.1656 163.953 41.3834 164.664 41.834C165.603 43.5687 161.859 45.1016 160.071 43.7166Z" fill="#160905"/>
<path d="M182.776 51.1663C182.776 51.8717 182.621 52.5612 182.33 53.1475C182.038 53.7338 181.625 54.1905 181.14 54.4598C180.656 54.7291 180.124 54.7989 179.61 54.6603C179.097 54.5217 178.625 54.181 178.256 53.6813C177.886 53.1816 177.635 52.5454 177.534 51.8532C177.433 51.1611 177.487 50.4442 177.689 49.7933C177.89 49.1424 178.231 48.5868 178.668 48.1968C179.104 47.8069 179.617 47.6001 180.14 47.6028C180.487 47.6028 180.831 47.6951 181.151 47.8743C181.472 48.0536 181.763 48.3163 182.008 48.6474C182.253 48.9784 182.447 49.3714 182.578 49.8036C182.71 50.2359 182.777 50.699 182.776 51.1663Z" fill="#FFD9CC"/>
<path d="M159.313 56.8544C159.959 56.6833 160.535 56.1918 160.926 55.477C161.318 54.7622 161.496 53.8759 161.425 52.993C161.355 52.1101 161.042 51.2947 160.547 50.7076C160.053 50.1205 159.413 49.8044 158.753 49.8216C158.348 49.8267 157.949 49.9554 157.585 50.1981C158.041 52.4702 158.618 54.6948 159.313 56.8544Z" fill="#FFD9CC"/>
</g>
<defs>
<clipPath id="clip0_53_52">
<rect width="309" height="208" fill="white"/>
</clipPath>
</defs>
</svg>
