<svg width="106" height="45" viewBox="0 0 106 45" fill="none" xmlns="http://www.w3.org/2000/svg">
<path fill-rule="evenodd" clip-rule="evenodd" d="M46.3185 10.6356C44.5485 11.2254 43.4475 12.2329 42.6386 13.8152C41.6986 15.6456 41.4902 17.3139 41.9633 19.4997C41.0807 20.6543 39.5916 21.3501 39.5916 24.986C39.5916 26.7653 40.0147 28.2279 41.0583 29.4997C41.4215 29.9436 41.7398 30.0608 42.0731 30.4723C41.3092 33.3937 42.7235 35.6057 44.1403 37.1444C45.2762 38.38 47.7378 40.5022 50.5726 39.8788C50.9047 40.0646 51.233 40.5022 51.5113 40.7516C53.5498 42.5858 58.252 42.6219 60.7274 41.3601C61.2779 41.0795 61.5362 40.7903 61.932 40.5533C62.7421 41.0097 62.8881 41.491 64.7893 41.9424C67.0362 42.4748 69.9571 42.3464 71.9244 41.0696C72.5411 40.6706 72.5997 40.4112 73.0229 40.0409C73.3499 39.7566 74.0777 40.0197 74.7879 39.9511C78.4878 39.5945 82.9866 34.8975 81.7983 30.4623C82.3425 29.8214 82.8293 29.8389 83.5459 28.3638C84.027 27.3435 84.2772 26.2298 84.2786 25.102C84.3048 23.5583 83.8342 21.5895 82.8955 20.4885C82.5397 20.0721 82.1915 19.8576 81.9243 19.491C82.345 17.279 82.199 15.678 81.2365 13.7965C80.7709 12.8888 80.3752 12.5159 79.7836 11.8825C79.2743 11.3364 78.4828 10.9436 77.5579 10.6269C77.5354 4.80272 72.7558 3.99474 72.2877 3.70048L71.6136 2.46108C70.8846 1.29025 69.4466 0.431153 67.9586 0.139383C66.2373 -0.199769 64.4635 0.0957422 63.0329 1.01844C62.5424 1.33514 62.3227 1.67305 61.9295 1.94487C60.474 0.777787 59.4167 -0.157376 56.8053 0.0221755C54.6557 0.169308 53.0605 1.18552 52.2578 2.47604C51.1556 4.23664 52.3352 3.24662 50.3642 4.0733C49.4155 4.4723 48.89 4.94612 48.3195 5.52467C47.0999 6.7516 46.316 8.28028 46.311 10.6269L46.3185 10.6356ZM62.968 27.3987C64.5908 27.8838 65.8128 28.3227 67.6715 27.7192C69.0159 27.2815 70.0782 26.3077 70.4502 24.885C70.9058 23.1506 69.9883 21.5184 70.7311 19.8065C71.3165 18.4548 72.9243 18.1506 74.5258 18.8937C76.231 19.6855 76.0787 21.1755 75.1063 22.5583C73.4099 24.9698 72.5261 28.4 75.4108 30.2292C77.0211 31.2504 77.9648 30.9361 79.8622 31.0172C80.7971 33.476 78.3168 36.1805 76.5056 37.294C75.6855 37.799 74.9577 38.0072 73.8393 37.991C74.1164 36.1207 74.597 34.6506 73.8068 32.8289C73.325 31.7154 72.053 30.6631 70.7348 30.2815C67.2534 29.2728 65.0152 32.3538 65.5844 35.7678L67.4743 35.3326C67.4393 34.4848 67.3707 33.8638 67.7751 33.1917C68.0683 32.6845 68.5509 32.3141 69.117 32.1618C73.2863 31.1955 73.3849 39.5072 69.1382 40.294C67.8513 40.5322 66.0013 40.4923 64.7693 40.1032C63.2002 39.6045 62.9256 38.8888 62.9306 37.0808C62.9306 35.2441 62.8394 28.6469 62.9618 27.3987H62.968ZM54.3137 17.8788C54.9653 17.2828 56.0314 17.1444 56.8914 16.708C59.8124 15.2229 60.5114 12.284 59.0509 9.54213C57.9088 7.40497 56.462 7.97604 54.5571 6.7915C52.5986 5.56956 53.5498 3.17554 55.4035 2.38003C57.5555 1.45983 59.9534 2.193 60.6924 3.78277C61.1555 4.78028 60.9421 9.31893 60.9421 10.7716C60.9421 15.5371 61.0731 20.4898 60.9308 25.2354C59.1458 25.8825 55.9639 26.4174 55.3698 24.3152C55.0128 23.0509 55.9452 21.0521 55.0427 19.0309C54.6682 18.1843 54.5284 18.4686 54.3112 17.8825L54.3137 17.8788ZM62.953 25.2254C62.7358 20.5533 62.9368 15.375 62.9368 10.6469C62.9368 9.12691 62.6872 4.78651 63.2264 3.70796C63.9754 2.2117 66.3908 1.44362 68.4692 2.3713C70.6337 3.33639 70.9982 5.71918 69.3929 6.7516C67.4743 7.991 66.1187 7.35759 64.8704 9.46233C63.8019 11.2616 63.8343 13.506 65.0514 15.1394C66.5805 17.1918 68.448 16.7691 69.5714 17.8825L69.4191 18.1194C69.4041 18.1419 69.3817 18.1718 69.3654 18.1942C69.318 18.2603 69.2269 18.3701 69.1495 18.4798C69.0044 18.6787 68.8837 18.8943 68.79 19.1219C68.5978 19.6027 68.482 20.1105 68.4467 20.6269C68.3406 21.789 68.76 23.4299 68.5104 24.3239C68.2482 25.2566 67.3033 25.7553 66.1674 25.8326C64.9565 25.9162 63.8868 25.5583 62.953 25.2292V25.2254ZM50.7124 13.2653C49.8811 12.7242 49.3793 12.4972 48.8812 11.7167C47.3958 9.3925 48.8812 6.3102 51.6112 5.76906C52.1904 9.66806 56.7928 7.82018 57.6966 11.5122C58.4268 14.4947 55.532 15.0521 54.1827 15.6207C52.0319 16.5272 53.3663 17.0396 51.7535 16.7067C49.3705 16.208 47.216 17.5633 46.3972 18.9411C44.9179 21.4349 46.7467 22.8439 47.6454 24.4274C48.88 26.6057 48.2321 28.7915 45.6657 29.0521C42.8945 29.3326 41.7398 27.9224 41.5875 25.3676C41.4353 22.8127 42.5862 21.1469 44.6695 20.688C44.1091 18.8538 43.4837 17.7977 44.0279 15.5758C44.4024 14.0733 45.4947 12.8326 46.9576 12.5434C47.4694 13.4536 48.7651 14.7491 50.0633 15.0297L50.7149 13.2641L50.7124 13.2653ZM79.2168 20.6843C81.3264 21.1518 82.4961 22.9037 82.2913 25.4898C82.0879 28.0533 80.8508 29.3725 78.0834 29.0309C75.4695 28.7092 75.0513 26.3725 76.3283 24.2765C77.3095 22.6681 78.9272 21.3002 77.4355 18.8551C76.5505 17.4037 74.391 16.2566 71.9219 16.7566C71.143 16.9137 71.1854 16.6232 70.7123 16.2192C69.6064 15.2703 68.0485 15.4124 66.9213 14.2716C66.1823 13.5234 65.8403 12.6506 66.2348 11.3302C67.2621 7.90497 71.6897 9.66307 72.2689 5.77155C75.0089 6.31021 76.533 9.4536 74.949 11.8015C74.4759 12.5035 73.9304 12.7815 73.1677 13.2653C73.2626 13.8264 73.5996 14.6656 73.9166 15.0346C75.985 14.2429 76.2235 13.1805 77.0373 12.5571C78.5253 13.0272 79.489 14.0035 79.8772 15.6743C80.3765 17.8252 79.7611 18.9299 79.2131 20.688L79.2168 20.6843ZM44.0154 31.0334C46.0339 30.8489 46.7492 31.3239 48.5392 30.1905C51.3615 28.4062 50.4441 24.8289 48.664 22.4075C46.2037 19.0633 52.0281 16.8763 53.2077 19.9935C53.9879 22.0558 51.8022 26.3326 56.2897 27.7578C58.0373 28.3139 59.4104 27.8825 60.9084 27.3937C61.0332 28.6406 60.9358 35.2491 60.9408 37.0858C60.9458 38.9224 60.6462 39.5982 59.0896 40.1119C57.8813 40.5122 56.0376 40.5508 54.7207 40.299C53.3263 40.0309 52.6186 39.1768 52.1155 38.0309C50.7137 34.8514 52.1804 31.5833 54.7444 32.1706C56.3172 32.5272 56.4558 34.0409 56.4021 35.3264L58.3007 35.7454C58.8974 31.6668 56.0139 29.3701 53.0355 30.3277C49.0098 31.6232 49.5228 35.1618 50.0396 37.9561C47.1199 38.3825 42.907 34.0509 44.0192 31.0284L44.0154 31.0334Z" fill="#7F56D9"/>
<path fill-rule="evenodd" clip-rule="evenodd" d="M15.1091 4.79893C15.3787 4.51072 15.7513 4.34051 16.1459 4.32533C16.5405 4.31015 16.9252 4.45123 17.2162 4.71788C17.5056 4.98663 17.6763 5.35917 17.6908 5.75362C17.7054 6.14807 17.5625 6.53214 17.2936 6.82137L3.49263 21.7241L17.0514 37.4685C17.3082 37.7697 17.4352 38.1602 17.4046 38.5546C17.3739 38.949 17.1882 39.3153 16.8879 39.5732C16.5867 39.8301 16.196 39.9574 15.8011 39.9272C15.4062 39.8971 15.0394 39.712 14.7808 39.4124L0.358204 22.6605C0.120534 22.3834 -0.00685076 22.0286 0.000284291 21.6638C0.00741934 21.2989 0.148576 20.9494 0.3969 20.6817L15.1091 4.79893Z" fill="#12B76A"/>
<path fill-rule="evenodd" clip-rule="evenodd" d="M37.4157 2.30022C37.604 1.97143 37.9101 1.7262 38.2723 1.61401C38.6345 1.50182 39.0258 1.53102 39.3673 1.69572C39.7087 1.86042 39.975 2.14835 40.1123 2.50143C40.2495 2.85452 40.2477 3.24647 40.107 3.59822L20.8411 43.1643C20.6682 43.5207 20.3608 43.7941 19.9864 43.9245C19.612 44.0549 19.2012 44.0317 18.8438 43.8601C18.4871 43.6873 18.2134 43.3803 18.0828 43.0064C17.9522 42.6324 17.9754 42.222 18.1473 41.8651L37.4157 2.30022Z" fill="#12B76A"/>
<path fill-rule="evenodd" clip-rule="evenodd" d="M87.7075 6.82146C87.5746 6.67794 87.4713 6.50967 87.4034 6.32626C87.3356 6.14284 87.3046 5.94788 87.3122 5.75249C87.3197 5.55711 87.3658 5.36513 87.4477 5.18752C87.5295 5.00991 87.6456 4.85015 87.7893 4.71735C87.933 4.58455 88.1014 4.48133 88.2851 4.41356C88.4687 4.3458 88.6639 4.31483 88.8595 4.32241C89.0551 4.32999 89.2473 4.37599 89.4251 4.45776C89.6029 4.53954 89.7628 4.6555 89.8958 4.79902L104.605 20.6793C104.854 20.947 104.995 21.2965 105.002 21.6614C105.009 22.0262 104.882 22.381 104.644 22.6581L90.2241 39.4125C89.9581 39.6829 89.5993 39.8425 89.2201 39.8588C88.841 39.8752 88.4697 39.7472 88.1814 39.5007C87.893 39.2542 87.7091 38.9075 87.6668 38.5308C87.6245 38.154 87.727 37.7753 87.9535 37.4711L101.512 21.7242L87.7075 6.82146Z" fill="#12B76A"/>
</svg>
